#!OML:ASF C:\ViconDB\ViconDB\414\Spring2016\041811\Spring2016.ASF
:FULLY-SPECIFIED
:DEGREES
382
root 11.0054 19.1291 -10.0114 580.174 82.5389 218.577
lowerback 1.90548 1.62804 -4.58762
upperback 0.340853 2.08434 -0.949221
thorax -0.845695 1.05962 1.53757
lowerneck -17.852 -0.598535 -10.6973
upperneck 24.6785 -2.13029 18.9439
head 11.2689 0.574721 8.80709
rclavicle 4.27387e-015 -1.43125e-014
rhumerus -28.0452 -26.2328 1.77005
rradius 26.4771
rwrist 47.2089
rhand -26.9782 -11.462
rfingers 7.12502
rthumb -0.399063 -41.4414
lclavicle 4.27387e-015 -1.43125e-014
lhumerus -29.9506 -14.7238 3.22166
lradius 22.2841
lwrist -6.18205
lhand -28.0336 20.9312
lfingers 7.12502
lthumb -1.41833 50.9063
rfemur -37.0244 -206.871 -2.95208
rtibia 37.6809
rfoot -5.11758 -61.904
rtoes -16.8328
lfemur -15.1906 4.17732 -10.7902
ltibia 46.393
lfoot -5.49607 0.335474
ltoes -24.4048
383
root 11.026 19.1568 -9.97787 600.089 84.7247 238.84
lowerback 1.77885 1.76721 -4.7761
upperback 0.469141 2.27999 -1.10829
thorax -0.655412 1.15305 1.48017
lowerneck -17.95 -0.505993 -10.8427
upperneck 24.8723 -1.99681 19.0033
head 11.3364 0.627458 8.89697
rclavicle -3.34952e-014 3.18055e-014
rhumerus -28.0983 -27.369 2.13767
rradius 26.2203
rwrist 48.6564
rhand -27.1651 -11.3262
rfingers 7.12502
rthumb -0.579574 -41.3051
lclavicle -3.34952e-014 3.18055e-014
lhumerus -30.56 -14.7581 3.73813
lradius 22.476
lwrist -5.45487
lhand -27.7734 21.3728
lfingers 7.12502
lthumb -1.16702 51.3494
rfemur -37.7004 -208.236 -2.3959
rtibia 38.0004
rfoot -7.50291 -64.0057
rtoes -11.2807
lfemur -15.0907 3.00713 -9.97596
ltibia 47.5838
lfoot -2.53138 -3.94566
ltoes -22.9522
384
root 11.0457 19.168 -9.95317 637.67 85.7876 276.705
lowerback 1.60841 1.90896 -5.02752
upperback 0.557212 2.48219 -1.39693
thorax -0.479182 1.2512 1.32643
lowerneck -17.8335 -0.301007 -10.7681
upperneck 24.7802 -1.76559 19.1176
head 11.2328 0.742874 8.94362
rclavicle -5.55603e-014 6.20208e-014
rhumerus -28.0664 -28.5334 2.41978
rradius 25.8993
rwrist 49.6045
rhand -27.5763 -10.7739
rfingers 7.12502
rthumb -0.976669 -40.7514
lclavicle -5.55603e-014 6.20208e-014
lhumerus -31.0097 -14.4954 3.82711
lradius 22.5099
lwrist -4.90207
lhand -27.6737 21.6232
lfingers 7.12502
lthumb -1.07072 51.6003
rfemur -38.1442 -209.099 -2.00366
rtibia 38.1574
rfoot -9.71276 -66.4166
rtoes -5.80698
lfemur -14.891 1.46649 -9.46641
ltibia 48.6563
lfoot 0.0402952 -8.27491
ltoes -21.1269
385
root 11.0585 19.1645 -9.93162 673.899 84.3872 313.079
lowerback 1.29762 2.1038 -5.03049
upperback 0.65046 2.76816 -1.58778
thorax -0.216936 1.38824 1.13997
lowerneck -18.0078 -0.283495 -10.8717
upperneck 24.8028 -1.77614 19.3471
head 11.2826 0.754386 9.06613
rclavicle -2.78299e-014 5.56597e-014
rhumerus -27.9617 -28.8665 2.50638
rradius 25.8019
rwrist 49.9955
rhand -27.8472 -11.4705
rfingers 7.12502
rthumb -1.23834 -41.4467
lclavicle -2.78299e-014 5.56597e-014
lhumerus -31.1664 -13.3786 3.53747
lradius 22.3776
lwrist -4.90039
lhand -27.5462 21.7396
lfingers 7.12502
lthumb -0.947622 51.7172
rfemur -38.274 -209.569 -1.21565
rtibia 38.2175
rfoot -12.0944 -69.1317
rtoes -1.55557
lfemur -14.7395 -0.367554 -8.69968
ltibia 49.6471
lfoot 2.02961 -11.9457
ltoes -17.3427
386
root 11.0671 19.1466 -9.91093 691.234 81.648 330.519
lowerback 1.09466 2.27237 -5.01289
upperback 0.641683 3.00672 -1.72155
thorax -0.117693 1.50586 0.996805
lowerneck -18.1546 -0.271014 -10.7779
upperneck 24.874 -1.80391 19.3343
head 11.3447 0.747295 9.05097
rclavicle -7.00716e-014 4.77083e-014
rhumerus -27.6353 -29.4698 2.71975
rradius 25.679
rwrist 50.7992
rhand -27.7216 -11.4989
rfingers 7.12502
rthumb -1.11698 -41.4757
lclavicle -7.00716e-014 4.77083e-014
lhumerus -31.4917 -12.7351 3.22148
lradius 22.3203
lwrist -4.41109
lhand -27.8932 22.1102
lfingers 7.12502
lthumb -1.28273 52.0861
rfemur -38.1886 -209.583 -0.282015
rtibia 38.1302
rfoot -13.8714 -71.6216
rtoes -1.4004
lfemur -14.49 -2.35483 -7.94712
ltibia 50.578
lfoot 3.09896 -14.3509
ltoes -14.8455
387
root 11.0742 19.1068 -9.89764 700.144 78.5508 339.46
lowerback 0.855424 2.50339 -4.96097
upperback 0.676465 3.33478 -1.92829
thorax 0.0496728 1.66706 0.762984
lowerneck -18.4264 -0.435854 -10.9064
upperneck 24.8655 -2.06592 19.558
head 11.4548 0.642384 9.14678
rclavicle -2.3059e-014 4.77083e-015
rhumerus -27.4416 -29.0249 2.79451
rradius 25.9732
rwrist 50.3402
rhand -26.9035 -11.7713
rfingers 7.12502
rthumb -0.326842 -41.7508
lclavicle -2.3059e-014 4.77083e-015
lhumerus -31.5187 -11.8203 2.65683
lradius 22.2302
lwrist -4.86217
lhand -27.6873 22.5277
lfingers 7.12502
lthumb -1.08386 52.5047
rfemur -37.9569 -209.565 0.398157
rtibia 37.9157
rfoot -15.1352 -73.544
rtoes -0.967564
lfemur -14.1223 -4.33237 -7.40132
ltibia 51.4839
lfoot 3.01892 -15.13
ltoes -12.7643
388
root 11.0808 19.0576 -9.89027 705.403 75.2458 344.785
lowerback 0.93887 2.70744 -4.97859
upperback 0.534092 3.59582 -2.15679
thorax -0.142699 1.80397 0.525856
lowerneck -18.3951 -0.272924 -10.3836
upperneck 24.7947 -1.91703 19.1898
head 11.3841 0.707564 8.8997
rclavicle -3.63776e-014 3.81667e-014
rhumerus -27.0611 -29.3304 3.02042
rradius 26.0343
rwrist 50.4928
rhand -26.2336 -11.6944
rfingers 7.12502
rthumb 0.320173 -41.6739
lclavicle -3.63776e-014 3.81667e-014
lhumerus -31.7888 -11.4715 1.91869
lradius 21.7138
lwrist -7.09064
lhand -27.594 21.897
lfingers 7.12502
lthumb -0.993819 51.8744
rfemur -37.4451 -209.095 0.957162
rtibia 37.47
rfoot -17.2516 -74.8945
rtoes -0.0568336
lfemur -13.5306 -6.35164 -6.9467
ltibia 52.291
lfoot 1.40244 -14.3013
ltoes -12.8691
389
root 11.0919 18.9942 -9.88902 709.227 71.9115 348.552
lowerback 0.792605 2.8898 -5.13271
upperback 0.311054 3.83763 -2.33459
thorax -0.298958 1.9308 0.424964
lowerneck -18.0473 -0.254654 -10.6243
upperneck 24.5744 -1.94282 19.6352
head 11.2411 0.704701 9.09288
rclavicle 2.13694e-015 1.90833e-014
rhumerus -26.4962 -29.3514 3.3603
rradius 26.0172
rwrist 50.1271
rhand -25.7296 -11.2093
rfingers 7.12502
rthumb 0.806924 -41.1876
lclavicle 2.13694e-015 1.90833e-014
lhumerus -32.2626 -12.17 1.69915
lradius 21.7756
lwrist -6.70198
lhand -27.8778 22.489
lfingers 7.12502
lthumb -1.26785 52.465
rfemur -36.5991 -208.733 1.33258
rtibia 36.8683
rfoot -17.2929 -75.7688
rtoes -1.82955
lfemur -12.8686 -8.44969 -6.72593
ltibia 52.8799
lfoot -0.288694 -12.9207
ltoes -12.4481
390
root 11.1092 18.9497 -9.88658 712.103 68.5185 351.514
lowerback 0.925439 3.09806 -5.52324
upperback 0.243195 4.09879 -2.45645
thorax -0.473023 2.06608 0.499279
lowerneck -18.3256 -0.38476 -10.777
upperneck 24.5008 -2.11779 19.7546
head 11.3088 0.621978 9.15302
rclavicle -8.24956e-015 -1.59028e-015
rhumerus -25.8385 -28.8338 3.57472
rradius 26.054
rwrist 49.5997
rhand -25.9476 -11.062
rfingers 7.12502
rthumb 0.596346 -41.0409
lclavicle -8.24956e-015 -1.59028e-015
lhumerus -32.6666 -12.0963 1.29675
lradius 21.8741
lwrist -6.50557
lhand -27.6599 22.3331
lfingers 7.12502
lthumb -1.0574 52.3102
rfemur -35.5086 -207.895 1.41556
rtibia 36.165
rfoot -15.8461 -74.555
rtoes -6.57149
lfemur -11.7717 -10.5823 -6.78219
ltibia 53.0243
lfoot -1.73069 -11.0671
ltoes -12.0306
391
root 11.1256 18.9086 -9.88506 714.333 65.0286 353.63
lowerback 0.965675 3.29571 -5.84931
upperback 0.102648 4.3472 -2.55316
thorax -0.66913 2.19657 0.564949
lowerneck -18.3402 -0.382841 -10.8863
upperneck 24.1704 -2.0547 19.6711
head 11.1739 0.61328 9.11144
rclavicle 8.89561e-015 -5.40694e-014
rhumerus -25.1513 -29.016 3.96982
rradius 26.1328
rwrist 50.0502
rhand -25.4556 -11.8097
rfingers 7.12502
rthumb 1.07157 -41.7868
lclavicle 8.89561e-015 -5.40694e-014
lhumerus -33.1602 -11.7357 0.704778
lradius 21.8546
lwrist -7.17052
lhand -27.7233 21.9391
lfingers 7.12502
lthumb -1.11871 51.9159
rfemur -33.8767 -207.104 1.58562
rtibia 35.5534
rfoot -18.1452 -72.289
rtoes -12.851
lfemur -10.613 -12.3122 -6.84739
ltibia 52.6461
lfoot -3.03908 -9.45771
ltoes -12.0215
392
root 11.1458 18.8898 -9.87639 716.366 61.5281 355.746
lowerback 1.20794 3.55196 -6.44375
upperback 0.00541605 4.65671 -2.86197
thorax -0.942668 2.36165 0.544413
lowerneck -18.388 -0.519729 -10.7276
upperneck 23.7498 -2.28195 19.6783
head 11.0732 0.51067 9.0157
rclavicle -1.49089e-015 3.49861e-014
rhumerus -24.7366 -29.3451 4.43435
rradius 25.928
rwrist 50.3823
rhand -25.5708 -11.9223
rfingers 7.12502
rthumb 0.960276 -41.8999
lclavicle -1.49089e-015 3.49861e-014
lhumerus -33.0701 -12.5294 0.268691
lradius 21.7677
lwrist -6.39909
lhand -27.7916 22.2286
lfingers 7.12502
lthumb -1.18465 52.205
rfemur -32.5729 -205.959 1.33059
rtibia 35.0728
rfoot -14.243 -68.9467
rtoes -6.66656
lfemur -8.98001 -14.0206 -7.31048
ltibia 51.6532
lfoot -4.13975 -7.9432
ltoes -11.8489
393
root 11.1617 18.8662 -9.86125 717.384 58.0688 357.071
lowerback 1.72041 3.77034 -7.04648
upperback 0.0257497 4.8889 -2.94568
thorax -1.26492 2.48727 0.742039
lowerneck -18.748 -0.678479 -10.9261
upperneck 23.5841 -2.46895 19.8142
head 11.1271 0.422037 9.08316
rclavicle 4.17448e-015 3.18055e-014
rhumerus -24.1095 -29.371 4.83809
rradius 25.8636
rwrist 50.0786
rhand -25.9112 -11.9594
rfingers 7.12502
rthumb 0.631486 -41.9382
lclavicle 4.17448e-015 3.18055e-014
lhumerus -33.2718 -12.2573 -0.386387
lradius 21.6906
lwrist -6.72763
lhand -27.3115 22.5784
lfingers 7.12502
lthumb -0.720906 52.5569
rfemur -31.9049 -204.006 1.14543
rtibia 34.8252
rfoot -10.6647 -65.8512
rtoes -4.48236
lfemur -6.87857 -15.8286 -7.74552
ltibia 50.189
lfoot -5.1883 -6.31591
ltoes -11.789
